<svg width="36" height="36" viewBox="0 0 36 36" fill="none" xmlns="http://www.w3.org/2000/svg">
<path d="M2.45391 31.5H8.18438V17.5922L0 11.4609V29.0531C0 30.4102 1.10391 31.5 2.45391 31.5Z" fill="#4285F4"/>
<path d="M27.8154 31.5H33.5459C34.9029 31.5 35.9998 30.3961 35.9998 29.0461V11.4609L27.8154 17.5992" fill="#34A853"/>
<path d="M27.8154 6.96141V17.5997L35.9998 11.4614V8.19188C35.9998 5.15438 32.5334 3.42469 30.1076 5.24578" fill="#FBBC04"/>
<path d="M8.18457 17.5922V6.96094L18.0002 14.3227L27.8158 6.96094V17.5992L18.0002 24.9609" fill="#EA4335"/>
<path d="M0 8.18407V11.4606L8.18438 17.5989V6.96063L5.89219 5.23797C3.45938 3.41688 0 5.14657 0 8.18407Z" fill="#C5221F"/>
</svg>
