<svg width="36" height="36" viewBox="0 0 36 36" fill="none" xmlns="http://www.w3.org/2000/svg">
<g clip-path="url(#clip0_49_53)">
<path d="M27.2456 11.895V7.62596C27.8103 7.36151 28.2886 6.94245 28.6249 6.41734C28.9613 5.89222 29.142 5.28255 29.1461 4.65896V4.55846C29.1437 3.68662 28.7964 2.85115 28.1801 2.23452C27.5637 1.6179 26.7284 1.27023 25.8566 1.26746H25.7561C24.8845 1.27023 24.0494 1.61769 23.4331 2.23399C22.8168 2.85029 22.4693 3.68538 22.4666 4.55696V4.65746C22.47 5.27736 22.648 5.88374 22.9802 6.40716C23.3123 6.93057 23.7852 7.34985 24.3446 7.61696L24.3641 7.62596V11.904C22.7314 12.152 21.1943 12.8302 19.9106 13.869L19.9286 13.854L8.18656 4.71146C8.41012 3.87395 8.33626 2.98482 7.97758 2.19568C7.61889 1.40653 6.99759 0.766224 6.21961 0.38393C5.44163 0.00163691 4.55513 -0.0989745 3.71126 0.0992499C2.86739 0.297474 2.11841 0.782261 1.592 1.47096C1.06559 2.15965 0.794355 3.00961 0.824538 3.87592C0.854722 4.74223 1.18445 5.57126 1.75752 6.22164C2.33058 6.87203 3.11149 7.30352 3.96711 7.44253C4.82273 7.58154 5.70007 7.41947 6.44956 6.98396L6.43156 6.99296L17.9771 15.9795C16.9584 17.5106 16.4166 19.3094 16.4201 21.1485C16.4156 23.0872 17.0171 24.9789 18.1406 26.559L18.1211 26.529L14.6081 30.0435C14.3267 29.9534 14.0335 29.9054 13.7381 29.901H13.7351C13.1319 29.901 12.5423 30.0798 12.0409 30.4149C11.5394 30.75 11.1485 31.2262 10.9177 31.7835C10.6869 32.3407 10.6265 32.9538 10.7442 33.5454C10.8618 34.1369 11.1523 34.6803 11.5787 35.1068C12.0052 35.5333 12.5486 35.8237 13.1401 35.9414C13.7317 36.059 14.3448 35.9986 14.9021 35.7678C15.4593 35.537 15.9355 35.1462 16.2706 34.6447C16.6057 34.1432 16.7846 33.5536 16.7846 32.9505C16.78 32.6471 16.7294 32.3462 16.6346 32.058L16.6421 32.079L20.1176 28.6035C21.2504 29.4678 22.5654 30.0625 23.9626 30.3422C25.3598 30.6219 26.8024 30.5792 28.1806 30.2175C29.5588 29.8558 30.8364 29.1845 31.9162 28.2547C32.996 27.3249 33.8495 26.1612 34.4118 24.8519C34.9741 23.5426 35.2305 22.1224 35.1613 20.6991C35.0921 19.2759 34.6993 17.8872 34.0127 16.6386C33.326 15.39 32.3637 14.3145 31.1989 13.4938C30.034 12.6731 28.6974 12.1288 27.2906 11.9025L27.2366 11.895H27.2456ZM25.7996 25.962C24.8491 25.9593 23.9207 25.675 23.1317 25.1451C22.3426 24.6151 21.7284 23.8632 21.3664 22.9843C21.0044 22.1054 20.9111 21.139 21.098 20.2071C21.285 19.2752 21.7439 18.4195 22.4168 17.7483C23.0898 17.077 23.9465 16.6202 24.8789 16.4356C25.8113 16.2509 26.7775 16.3468 27.6555 16.7109C28.5334 17.075 29.2838 17.6912 29.8118 18.4815C30.3398 19.2719 30.6218 20.201 30.6221 21.1515V21.1545C30.6223 21.7862 30.498 22.4119 30.2563 22.9956C30.0146 23.5793 29.6603 24.1097 29.2135 24.5564C28.7668 25.0032 28.2364 25.3575 27.6527 25.5992C27.069 25.8409 26.4433 25.9652 25.8116 25.965L25.7996 25.962Z" fill="#F8761F"/>
</g>
<defs>
<clipPath id="clip0_49_53">
<rect width="36" height="36" fill="white"/>
</clipPath>
</defs>
</svg>
