<svg width="36" height="36" viewBox="0 0 36 36" fill="none" xmlns="http://www.w3.org/2000/svg">
<g clip-path="url(#clip0_49_49)">
<path fill-rule="evenodd" clip-rule="evenodd" d="M29.22 0.736345L29.5789 0.95904L33.3189 3.4715C33.792 3.7896 34.1876 4.21122 34.4764 4.70491C34.7652 5.19861 34.9397 5.75164 34.9868 6.32276L35 6.63872V30.5052C34.9999 31.4131 34.6778 32.2912 34.0918 32.9809C33.5057 33.6705 32.6943 34.1264 31.804 34.2662L31.5112 34.3005L9.73422 35.9888C9.15456 36.0337 8.57244 35.9432 8.03317 35.7243C7.4939 35.5054 7.01205 35.1641 6.62511 34.7269L6.423 34.4775L2.13333 28.7141C1.4814 27.8379 1.09324 26.7914 1.01511 25.6991L1 25.288V5.47956C1.00006 4.57159 1.32219 3.69355 1.90825 3.00387C2.4943 2.3142 3.30569 1.85831 4.196 1.71849L4.48878 1.68423L25.9994 0.0168679C27.1194 -0.0700596 28.2397 0.180367 29.2181 0.736345H29.22ZM31.2222 9.57944L10.4444 11.1897V32.1154L31.2222 30.5052V9.57944ZM25.5556 12.2822C26.0565 12.2822 26.537 12.4828 26.8912 12.8397C27.2454 13.1967 27.4444 13.6808 27.4444 14.1856V27.5093C27.4444 28.0141 27.2454 28.4982 26.8912 28.8551C26.537 29.2121 26.0565 29.4126 25.5556 29.4126H24.6111C24.2884 29.4127 23.971 29.3295 23.6893 29.1709C23.4076 29.0123 23.1709 28.7836 23.0018 28.5066L18 20.3145V28.4609C18 28.9657 17.801 29.4499 17.4468 29.8068C17.0925 30.1638 16.6121 30.3643 16.1111 30.3643C15.6101 30.3643 15.1297 30.1638 14.7755 29.8068C14.4212 29.4499 14.2222 28.9657 14.2222 28.4609V15.1373C14.2222 14.6325 14.4212 14.1484 14.7755 13.7914C15.1297 13.4345 15.6101 13.2339 16.1111 13.2339H17.0556C17.3783 13.2338 17.6956 13.3171 17.9774 13.4757C18.2591 13.6343 18.4958 13.863 18.6649 14.1399L23.6667 22.3302V14.1856C23.6667 13.6808 23.8657 13.1967 24.2199 12.8397C24.5741 12.4828 25.0546 12.2822 25.5556 12.2822ZM26.2884 3.8122L7.12944 5.29684L9.27711 7.46098L30.0511 5.85262L27.4822 4.12626C27.1304 3.88988 26.71 3.77929 26.2884 3.8122Z" fill="black"/>
</g>
<defs>
<clipPath id="clip0_49_49">
<rect width="36" height="36" fill="white"/>
</clipPath>
</defs>
</svg>
