<svg width="36" height="36" viewBox="0 0 36 36" fill="none" xmlns="http://www.w3.org/2000/svg">
<path d="M21.9199 8.92871V15.0903L24.0754 16.446C24.1533 16.4627 24.2338 16.4627 24.3117 16.446L33.5794 10.1977C33.5727 9.89447 33.4617 9.60279 33.2652 9.3717C33.0688 9.14061 32.7988 8.98418 32.5005 8.92871H21.9199Z" fill="#0072C6"/>
<path d="M21.9195 17.3887L23.8849 18.7387C23.9768 18.795 24.0825 18.8248 24.1903 18.8248C24.2981 18.8248 24.4038 18.795 24.4957 18.7387C24.1582 18.9424 33.5779 12.6885 33.5779 12.6885V24.0127C33.6024 24.2422 33.5766 24.4743 33.5021 24.6927C33.4276 24.9111 33.3062 25.1106 33.1466 25.2772C32.9869 25.4439 32.7928 25.5736 32.5777 25.6574C32.3627 25.7411 32.1319 25.7769 31.9016 25.7621H21.9184L21.9195 17.3887ZM11.745 14.5481C11.4185 14.5467 11.0976 14.6335 10.8164 14.7995C10.5352 14.9654 10.3041 15.2043 10.1475 15.4909C9.72007 16.2506 9.51501 17.1153 9.55575 17.9861C9.51133 18.8551 9.71667 19.7186 10.1475 20.4746C10.3033 20.7494 10.5287 20.9784 10.8011 21.1385C11.0734 21.2986 11.3831 21.3843 11.699 21.3868C12.015 21.3893 12.326 21.3086 12.6008 21.1528C12.8757 20.997 13.1047 20.7717 13.2649 20.4994C13.6918 19.7472 13.893 18.8879 13.8442 18.0244C13.893 17.1338 13.6985 16.2467 13.2817 15.4582C13.1324 15.1813 12.9104 14.9502 12.6397 14.7899C12.3689 14.6295 12.0596 14.5459 11.745 14.5481Z" fill="#0072C6"/>
<path d="M2.42188 5.79938V29.9048L20.7594 33.75V2.25L2.42188 5.79938ZM14.6934 21.9274C14.3504 22.411 13.8943 22.8034 13.3648 23.0703C12.8354 23.3372 12.2487 23.4705 11.6559 23.4585C11.078 23.4688 10.5062 23.3393 9.98913 23.0812C9.47204 22.823 9.02494 22.4438 8.68587 21.9758C7.88179 20.853 7.47952 19.492 7.544 18.1125C7.47576 16.6654 7.88529 15.2359 8.7095 14.0445C9.05707 13.5519 9.52039 13.1522 10.0587 12.8807C10.597 12.6092 11.1938 12.4742 11.7965 12.4875C12.3701 12.4764 12.9377 12.606 13.4496 12.8651C13.9615 13.1242 14.4021 13.5048 14.7327 13.9736C15.5288 15.1208 15.9242 16.4984 15.8577 17.8931C15.9281 19.3298 15.5185 20.7491 14.6934 21.9274Z" fill="#0072C6"/>
</svg>
