<svg width="36" height="36" viewBox="0 0 36 36" fill="none" xmlns="http://www.w3.org/2000/svg">
<g clip-path="url(#clip0_49_26)">
<path d="M7.66504 22.7024C7.66504 24.764 5.98373 26.4478 3.92188 26.4478C1.86004 26.4478 0.176758 24.764 0.176758 22.7024C0.176758 20.6409 1.8606 18.957 3.92216 18.957H7.66532L7.66504 22.7024ZM9.55195 22.7024C9.55195 20.6409 11.2358 18.957 13.2974 18.957C15.3589 18.957 17.0428 20.6406 17.0428 22.7024V32.0779C17.0428 34.1395 15.3592 35.8233 13.2974 35.8233C11.2358 35.8233 9.55195 34.1395 9.55195 32.0779V22.7024Z" fill="#DE1C59"/>
<path d="M13.2974 7.66504C11.2358 7.66504 9.55195 5.98373 9.55195 3.92188C9.55195 1.86004 11.2358 0.176758 13.2974 0.176758C15.3589 0.176758 17.0428 1.8606 17.0428 3.92216V7.66532L13.2974 7.66504ZM13.2974 9.55195C15.3589 9.55195 17.0428 11.2358 17.0428 13.2974C17.0428 15.3589 15.3592 17.0428 13.2974 17.0428H3.92188C1.86032 17.0428 0.176758 15.3592 0.176758 13.2974C0.176758 11.2358 1.8606 9.55195 3.92216 9.55195H13.2974Z" fill="#35C5F0"/>
<path d="M28.3348 13.2974C28.3348 11.2358 30.0161 9.55195 32.0779 9.55195C34.1398 9.55195 35.8233 11.2358 35.8233 13.2974C35.8233 15.3589 34.1395 17.0428 32.0779 17.0428H28.3348V13.2974ZM26.4478 13.2974C26.4478 15.3589 24.764 17.0428 22.7024 17.0428C20.6409 17.0428 18.957 15.3592 18.957 13.2974V3.92188C18.957 1.86032 20.6406 0.176758 22.7024 0.176758C24.764 0.176758 26.4478 1.8606 26.4478 3.92216V13.2974Z" fill="#2EB57D"/>
<path d="M22.7024 28.3348C24.764 28.3348 26.4478 30.0161 26.4478 32.0779C26.4478 34.1398 24.764 35.8233 22.7024 35.8233C20.6409 35.8233 18.957 34.1395 18.957 32.0779V28.3348H22.7024ZM22.7024 26.4478C20.6409 26.4478 18.957 24.764 18.957 22.7024C18.957 20.6409 20.6406 18.957 22.7024 18.957H32.0779C34.1395 18.957 35.8233 20.6406 35.8233 22.7024C35.8233 24.764 34.1395 26.4478 32.0779 26.4478H22.7024Z" fill="#EBB02E"/>
</g>
<defs>
<clipPath id="clip0_49_26">
<rect width="36" height="36" fill="white"/>
</clipPath>
</defs>
</svg>
