<svg width="36" height="36" viewBox="0 0 36 36" fill="none" xmlns="http://www.w3.org/2000/svg">
<g clip-path="url(#clip0_49_46)">
<path fill-rule="evenodd" clip-rule="evenodd" d="M32.1398 36H3.86016C1.72969 36 0 34.2703 0 32.1398V3.86016C0 1.72969 1.72969 0 3.86016 0H32.1398C34.2703 0 36 1.72969 36 3.86016V32.1398C36 34.2703 34.2703 36 32.1398 36Z" fill="#635BFF"/>
<path fill-rule="evenodd" clip-rule="evenodd" d="M16.2986 13.1486C16.2986 12.1221 17.1424 11.7213 18.5416 11.7213C20.5455 11.7213 23.0768 12.326 25.0807 13.4088V7.21426C22.8939 6.34238 20.7283 6.00488 18.5416 6.00488C13.1908 6.00488 9.62598 8.79629 9.62598 13.465C9.62598 20.7424 19.6455 19.5822 19.6455 22.7182C19.6455 23.9275 18.5908 24.3283 17.1143 24.3283C14.9275 24.3283 12.1291 23.4354 9.91426 22.2189V28.4979C12.3682 29.5525 14.8432 30.0025 17.1143 30.0025C22.5986 30.0025 26.3674 27.2885 26.3674 22.5705C26.3463 14.7025 16.2986 16.1018 16.2986 13.1486Z" fill="white"/>
</g>
<defs>
<clipPath id="clip0_49_46">
<rect width="36" height="36" fill="white"/>
</clipPath>
</defs>
</svg>
